<svg xmlns="http://www.w3.org/2000/svg" width="217.587" height="76.896" viewBox="0 0 217.587 76.896">
  <g id="Grupo_151" data-name="Grupo 151" transform="translate(-166.267 -30.911)">
    <path id="Caminho_86" data-name="Caminho 86" d="M169.527,42.605a3.256,3.256,0,0,0-3.257,3.257l0,28.726c0,13.367,10.611,24.589,24,24.813A24.414,24.414,0,0,0,215.1,74.99h0V63.5a3.868,3.868,0,0,0-3.87-3.867h0A3.867,3.867,0,0,0,207.36,63.5v7.615a2.468,2.468,0,0,1-2.468,2.468h0a2.469,2.469,0,0,1-2.471-2.468V40.058a3.256,3.256,0,0,0-3.257-3.257h0a3.256,3.256,0,0,0-3.257,3.257V62.329A1.67,1.67,0,0,1,194.232,64h0a1.67,1.67,0,0,1-1.67-1.67V34.168a3.257,3.257,0,0,0-3.257-3.257h0a3.256,3.256,0,0,0-3.257,3.257V62.329a1.668,1.668,0,0,1-1.67,1.67h-.049a1.668,1.668,0,0,1-1.67-1.67v-24.9a3.256,3.256,0,0,0-3.257-3.257h0a3.257,3.257,0,0,0-3.257,3.257v24.9A1.67,1.67,0,0,1,174.468,64h-.015a1.67,1.67,0,0,1-1.673-1.67V45.862a3.256,3.256,0,0,0-3.254-3.257Z" transform="translate(0)" fill="#12235b"/>
    <path id="Caminho_87" data-name="Caminho 87" d="M184.422,36.126c2.081,1.215,2.486,2.348,2.486,4.429V66.24a2.828,2.828,0,0,0,1.286,2.225c.712.411,1.292.083,1.3-.737V46.507c0-1.639,1.142-2.176,2.6-1.4,2,1.059,2.517,2.21,2.517,4.383V78.67a3.279,3.279,0,0,0,1.949,3.379c1.08.623,1.958.123,1.964-1.12V74.14c0-2.023,1.4-2.815,3.072-2,2.575,1.262,3.3,2.845,3.3,5.684V88.149c-.034,12.281-11.148,15.338-20.623,10.424-14.3-7.419-18-16-18-30.884V39.278c.006-1.639,1.151-2.277,2.591-1.476a4.374,4.374,0,0,1,2.529,4.457V57.292a2.829,2.829,0,0,0,1.289,2.228c.712.414,1.421.083,1.421-.737V36.074c.006-1.639,1.222-2.207,2.563-1.452a4.375,4.375,0,0,1,2.554,4.435v22.71A2.838,2.838,0,0,0,180.5,64c.712.411,1.292.08,1.3-.737V37.575C181.8,35.936,183,35.3,184.422,36.126Z" transform="translate(0 6.998)" fill="#379e5c"/>
    <rect id="Retângulo_75" data-name="Retângulo 75" width="4.934" height="16.103" rx="0.804" transform="translate(210.163 34.177)" fill="#9dbc3e"/>
    <rect id="Retângulo_76" data-name="Retângulo 76" width="4.934" height="16.103" rx="0.804" transform="translate(240.539 59.619) rotate(90)" fill="#9dbc3e"/>
    <rect id="Retângulo_77" data-name="Retângulo 77" width="4.934" height="16.103" rx="0.804" transform="translate(230.916 40.269) rotate(45)" fill="#9dbc3e"/>
    <path id="Caminho_88" data-name="Caminho 88" d="M203.348,37.695a10.181,10.181,0,0,1,3.306.506,7.2,7.2,0,0,1,2.535,1.461,6.587,6.587,0,0,1,1.642,2.311,7.626,7.626,0,0,1,.589,3.063,7.113,7.113,0,0,1-.467,2.738,7.559,7.559,0,0,1-1.056,1.848,5.336,5.336,0,0,1-1.136,1.1,3.455,3.455,0,0,1-.709.405,9.467,9.467,0,0,1,.955.405A6.888,6.888,0,0,1,210.69,52.7a7.447,7.447,0,0,1,1.584,2.192,7.716,7.716,0,0,1,.688,3.45,7.4,7.4,0,0,1-2.231,5.617,8.854,8.854,0,0,1-6.369,2.13h-8.723v-28.4Zm2.861,12.373a4.971,4.971,0,0,0,1.7-1.176,4.74,4.74,0,0,0,.995-1.7,6.546,6.546,0,0,0,.322-2.069,5.211,5.211,0,0,0-1.581-4,6.342,6.342,0,0,0-4.5-1.483h-5.4V50.516h5.964A6.285,6.285,0,0,0,206.209,50.068ZM207.3,63.64a5.637,5.637,0,0,0,2.05-1.32,4.731,4.731,0,0,0,1.1-1.845,7,7,0,0,0,.325-2.09,7.184,7.184,0,0,0-.325-2.109,5.242,5.242,0,0,0-2.94-3.287,6.65,6.65,0,0,0-2.781-.528H197.75V64.147h6.409A8.557,8.557,0,0,0,207.3,63.64Z" transform="translate(60.779 14.039)" fill="#12235b"/>
    <path id="Caminho_89" data-name="Caminho 89" d="M204.868,66.764a2.775,2.775,0,0,0,1.5.405,2.161,2.161,0,0,0,1.562-.608,5.884,5.884,0,0,0,1.2-1.989l1.906-4.828L201.826,40.92H204.1l8.033,16.593,6.452-16.593h2.191l-4.708,11.848L214.3,57.231l-1.581,3.953-1.179,2.922-.546,1.36a6.483,6.483,0,0,1-1.967,2.922,4.423,4.423,0,0,1-2.7.85,5,5,0,0,1-1.906-.365,6.991,6.991,0,0,1-1.909-1.258l1.258-1.7A6.141,6.141,0,0,0,204.868,66.764Z" transform="translate(73.585 20.712)" fill="#12235b"/>
    <path id="Caminho_90" data-name="Caminho 90" d="M223.991,38.769a13.124,13.124,0,0,1,4.441,2.962,13.488,13.488,0,0,1,2.882,4.481,16.12,16.12,0,0,1,0,11.363,13.457,13.457,0,0,1-2.882,4.481,13.124,13.124,0,0,1-4.441,2.962,14.676,14.676,0,0,1-5.678,1.074h-9.171v-28.4h9.171A14.676,14.676,0,0,1,223.991,38.769ZM222.124,60.7a8.591,8.591,0,0,0,2.839-2.087,9.331,9.331,0,0,0,1.808-3.045,10.662,10.662,0,0,0,.626-3.671,10.849,10.849,0,0,0-.626-3.692,9.039,9.039,0,0,0-1.808-3.042,8.659,8.659,0,0,0-6.572-2.839h-4.38V61.467h4.38A8.748,8.748,0,0,0,222.124,60.7Z" transform="translate(88.722 14.039)" fill="#12235b"/>
    <path id="Caminho_91" data-name="Caminho 91" d="M231.862,41.293a10.04,10.04,0,0,1,5.457,5.378,10.043,10.043,0,0,1-2.192,11.117,10.539,10.539,0,0,1-3.266,2.149,10.581,10.581,0,0,1-8.033,0,10.575,10.575,0,0,1-3.266-2.149,10.148,10.148,0,0,1-2.192-11.117,10.04,10.04,0,0,1,5.457-5.378,10.854,10.854,0,0,1,8.033,0Zm-1.8,14.444a5.093,5.093,0,0,0,1.685-1.2,5.156,5.156,0,0,0,1.053-1.765,6.245,6.245,0,0,0,.365-2.149,6.079,6.079,0,0,0-.365-2.13,5.43,5.43,0,0,0-1.053-1.765,4.936,4.936,0,0,0-1.685-1.219,5.717,5.717,0,0,0-4.423,0,4.894,4.894,0,0,0-1.682,1.219A5.384,5.384,0,0,0,222.9,48.5a6.15,6.15,0,0,0-.365,2.13,6.319,6.319,0,0,0,.365,2.149,5.114,5.114,0,0,0,1.056,1.765,5.049,5.049,0,0,0,1.682,1.2,5.681,5.681,0,0,0,4.423,0Z" transform="translate(106.185 19.891)" fill="#12235b"/>
    <path id="Caminho_92" data-name="Caminho 92" d="M239.406,41.293a10.04,10.04,0,0,1,5.457,5.378,10.272,10.272,0,0,1,0,7.91,9.792,9.792,0,0,1-2.192,3.207,10.539,10.539,0,0,1-3.266,2.149,10.581,10.581,0,0,1-8.033,0,10.576,10.576,0,0,1-3.266-2.149,9.839,9.839,0,0,1-2.192-3.207,10.1,10.1,0,0,1,2.192-11.136,10.114,10.114,0,0,1,3.266-2.152,10.854,10.854,0,0,1,8.033,0Zm-1.8,14.444a5,5,0,0,0,2.738-2.962,6.245,6.245,0,0,0,.365-2.149,6.079,6.079,0,0,0-.365-2.13,5.377,5.377,0,0,0-1.053-1.765,4.936,4.936,0,0,0-1.685-1.219,5.717,5.717,0,0,0-4.423,0,4.953,4.953,0,0,0-1.682,1.219A5.438,5.438,0,0,0,230.44,48.5a6.15,6.15,0,0,0-.365,2.13,6.319,6.319,0,0,0,.365,2.149,5.023,5.023,0,0,0,2.738,2.962,5.681,5.681,0,0,0,4.423,0Z" transform="translate(121.803 19.891)" fill="#12235b"/>
    <path id="Caminho_93" data-name="Caminho 93" d="M244.34,40.667a8.673,8.673,0,0,1,1.707.467l-1.707,4.38a4.154,4.154,0,0,0-.995-.325,6.173,6.173,0,0,0-1.237-.12,4.312,4.312,0,0,0-2.756.832,6.658,6.658,0,0,0-1.624,1.765V60.241h-4.868V41.011h4.626v2.8a7.229,7.229,0,0,1,2.026-2.271,5.276,5.276,0,0,1,3.287-1.016A9.41,9.41,0,0,1,244.34,40.667Z" transform="translate(137.807 19.891)" fill="#12235b"/>
  </g>
</svg>
