<svg xmlns="http://www.w3.org/2000/svg" width="48.951" height="48.952" viewBox="0 0 48.951 48.952">
  <g id="linkedin-logo" transform="translate(-0.002)">
    <path id="LinkedIn__x28_alt_x29_" d="M45.338,0H3.619A3.563,3.563,0,0,0,0,3.507V45.443a3.564,3.564,0,0,0,3.617,3.509h41.72a3.563,3.563,0,0,0,3.615-3.509V3.507A3.562,3.562,0,0,0,45.338,0Zm-30.5,40.976h-7.4v-22.1h7.4Zm-3.7-25.12H11.1a3.831,3.831,0,1,1,.1-7.636,3.832,3.832,0,1,1-.047,7.636ZM41.5,40.976H34.11V29.151c0-2.971-1.071-5-3.745-5a4.04,4.04,0,0,0-3.793,2.688,4.939,4.939,0,0,0-.247,1.79V40.975H18.933s.1-20.028,0-22.1h7.394v3.133a7.342,7.342,0,0,1,6.662-3.653c4.867,0,8.515,3.157,8.515,9.949V40.976Zm-15.225-18.9c.013-.021.03-.046.048-.07v.07Z" fill="#fff"/>
  </g>
</svg>
