<svg xmlns="http://www.w3.org/2000/svg" width="28.309" height="28.307" viewBox="0 0 28.309 28.307">
  <g id="telephone" transform="translate(-0.002 -0.02)">
    <g id="Grupo_115" data-name="Grupo 115" transform="translate(0.002 1.519)">
      <g id="Grupo_114" data-name="Grupo 114" transform="translate(0)">
        <path id="Caminho_68" data-name="Caminho 68" d="M26.208,46.635,22.7,43.01l-.01-.01a2.486,2.486,0,0,0-3.518,0l-1.6,1.6a1.884,1.884,0,0,1-2.665,0h0l-5.562-5.43a1.884,1.884,0,0,1,0-2.665l1.6-1.6a2.491,2.491,0,0,0,0-3.518L7.429,27.866a2.491,2.491,0,0,0-3.518,0L2.738,29.039l-.107.107a8.967,8.967,0,0,0,0,12.688l9.614,9.482a8.966,8.966,0,0,0,12.675.012c.019-.018,1.262-1.163,1.281-1.181A2.491,2.491,0,0,0,26.208,46.635ZM5.084,29.039a.83.83,0,0,1,1.173,0l3.518,3.518a.829.829,0,0,1,0,1.173l-.586.586L4.5,29.625Zm8.334,21.1L3.8,40.661a7.308,7.308,0,0,1-.458-9.84L8.021,35.5a3.548,3.548,0,0,0,.155,4.847l5.563,5.431a3.54,3.54,0,0,0,4.845.153L23.259,50.6A7.291,7.291,0,0,1,13.418,50.143Zm11.621-1.178-.557.514-4.719-4.719.586-.586a.829.829,0,0,1,1.169,0L25.029,47.8A.83.83,0,0,1,25.039,48.965Z" transform="translate(-0.002 -27.139)" fill="#38b6ab"/>
      </g>
    </g>
    <g id="Grupo_117" data-name="Grupo 117" transform="translate(13.383 0.02)">
      <g id="Grupo_116" data-name="Grupo 116" transform="translate(0 0)">
        <path id="Caminho_69" data-name="Caminho 69" d="M242.85.02a.829.829,0,0,0,0,1.659,12.454,12.454,0,0,1,12.44,12.44.829.829,0,1,0,1.659,0A14.09,14.09,0,0,0,242.85.02Z" transform="translate(-242.021 -0.02)" fill="#38b6ab"/>
      </g>
    </g>
    <g id="Grupo_119" data-name="Grupo 119" transform="translate(13.383 3.337)">
      <g id="Grupo_118" data-name="Grupo 118">
        <path id="Caminho_70" data-name="Caminho 70" d="M242.85,60.015a.829.829,0,0,0,0,1.659,9.133,9.133,0,0,1,9.122,9.122.829.829,0,1,0,1.659,0A10.793,10.793,0,0,0,242.85,60.015Z" transform="translate(-242.021 -60.015)" fill="#38b6ab"/>
      </g>
    </g>
    <g id="Grupo_121" data-name="Grupo 121" transform="translate(13.383 6.654)">
      <g id="Grupo_120" data-name="Grupo 120">
        <path id="Caminho_71" data-name="Caminho 71" d="M242.85,120.011a.829.829,0,0,0,0,1.659,5.812,5.812,0,0,1,5.805,5.805.829.829,0,1,0,1.659,0A7.472,7.472,0,0,0,242.85,120.011Z" transform="translate(-242.021 -120.011)" fill="#38b6ab"/>
      </g>
    </g>
    <g id="Grupo_123" data-name="Grupo 123" transform="translate(13.383 9.972)">
      <g id="Grupo_122" data-name="Grupo 122">
        <path id="Caminho_72" data-name="Caminho 72" d="M242.85,180.006a.829.829,0,0,0,0,1.659,2.491,2.491,0,0,1,2.488,2.488.829.829,0,1,0,1.659,0A4.151,4.151,0,0,0,242.85,180.006Z" transform="translate(-242.021 -180.006)" fill="#38b6ab"/>
      </g>
    </g>
  </g>
</svg>
