<svg xmlns="http://www.w3.org/2000/svg" width="45.907" height="47.496" viewBox="0 0 45.907 47.496">
  <g id="clock" transform="translate(-3.404)">
    <path id="Caminho_75" data-name="Caminho 75" d="M47.911,2.781H38.737V1.4a1.4,1.4,0,1,0-2.8,0V2.781H27.757V1.4a1.4,1.4,0,0,0-2.8,0V2.781H17.126V1.4a1.4,1.4,0,1,0-2.8,0V2.781H4.8a1.4,1.4,0,0,0-1.4,1.4V35.816a1.4,1.4,0,0,0,1.4,1.4H13.4a13.31,13.31,0,0,0,25.92,0h8.593a1.4,1.4,0,0,0,1.4-1.4V4.181a1.4,1.4,0,0,0-1.4-1.4Zm-33.586,2.8V6.846a1.4,1.4,0,1,0,2.8,0V5.581h7.832V6.846a1.4,1.4,0,0,0,2.8,0V5.581h8.179V6.846a1.4,1.4,0,1,0,2.8,0V5.581h7.774v5.725H6.2V5.581ZM26.357,44.7A10.513,10.513,0,1,1,36.87,34.183,10.525,10.525,0,0,1,26.357,44.7Zm13.307-10.28c0-.078.006-.155.006-.233a13.313,13.313,0,1,0-26.626,0c0,.078,0,.155.006.233H6.2V14.107H46.511V34.416H39.665Z" fill="#38b6ab"/>
    <path id="Caminho_76" data-name="Caminho 76" d="M98.571,121.151v-6.773a1.4,1.4,0,1,0-2.8,0v7.353a1.4,1.4,0,0,0,.41.99l3.218,3.218a1.4,1.4,0,0,0,1.98-1.98l-2.808-2.808Z" transform="translate(-70.814 -86.615)" fill="#38b6ab"/>
  </g>
</svg>
