<svg id="Símbolo_4_1" data-name="Símbolo 4 – 1" xmlns="http://www.w3.org/2000/svg" width="50.349" height="50.349" viewBox="0 0 50.349 50.349">
  <g id="Grupo_9" data-name="Grupo 9">
    <path id="Caminho_35" data-name="Caminho 35" d="M29.253,8.615c6.722,0,7.518.026,10.173.147a13.934,13.934,0,0,1,4.675.867,8.337,8.337,0,0,1,4.778,4.778,13.933,13.933,0,0,1,.867,4.675c.121,2.655.147,3.451.147,10.173s-.026,7.518-.147,10.173a13.934,13.934,0,0,1-.867,4.675A8.337,8.337,0,0,1,44.1,48.878a13.934,13.934,0,0,1-4.675.867c-2.654.121-3.45.147-10.173.147s-7.518-.026-10.173-.147a13.934,13.934,0,0,1-4.675-.867A8.337,8.337,0,0,1,9.628,44.1a13.934,13.934,0,0,1-.867-4.675c-.121-2.655-.147-3.451-.147-10.173s.026-7.518.147-10.173a13.933,13.933,0,0,1,.867-4.675,8.337,8.337,0,0,1,4.778-4.778,13.933,13.933,0,0,1,4.675-.867c2.655-.121,3.451-.147,10.173-.147m0-4.536c-6.837,0-7.694.029-10.379.151A18.478,18.478,0,0,0,12.763,5.4,12.873,12.873,0,0,0,5.4,12.763a18.478,18.478,0,0,0-1.17,6.111c-.123,2.685-.151,3.542-.151,10.379s.029,7.694.151,10.379A18.478,18.478,0,0,0,5.4,45.744a12.873,12.873,0,0,0,7.363,7.363,18.478,18.478,0,0,0,6.111,1.17c2.685.123,3.542.151,10.379.151s7.694-.029,10.379-.151a18.478,18.478,0,0,0,6.111-1.17,12.873,12.873,0,0,0,7.363-7.363,18.478,18.478,0,0,0,1.17-6.111c.123-2.685.151-3.542.151-10.379s-.029-7.694-.151-10.379a18.478,18.478,0,0,0-1.17-6.111A12.873,12.873,0,0,0,45.744,5.4a18.478,18.478,0,0,0-6.111-1.17c-2.685-.123-3.542-.151-10.379-.151Z" transform="translate(-4.079 -4.079)" fill="#fff"/>
    <path id="Caminho_36" data-name="Caminho 36" d="M139.562,126.635a12.927,12.927,0,1,0,12.927,12.927A12.927,12.927,0,0,0,139.562,126.635Zm0,21.319a8.391,8.391,0,1,1,8.392-8.391A8.391,8.391,0,0,1,139.562,147.954Z" transform="translate(-114.388 -114.388)" fill="#fff"/>
    <ellipse id="Elipse_1" data-name="Elipse 1" cx="3.021" cy="3.021" rx="3.021" ry="3.021" transform="translate(35.592 8.715)" fill="#fff"/>
  </g>
</svg>
