<svg id="twitter-logo-silhouette" xmlns="http://www.w3.org/2000/svg" width="48.989" height="39.793" viewBox="0 0 48.989 39.793">
  <g id="Grupo_8" data-name="Grupo 8">
    <path id="Caminho_34" data-name="Caminho 34" d="M48.99,62.149a20.07,20.07,0,0,1-5.771,1.583,10.092,10.092,0,0,0,4.417-5.556,20.26,20.26,0,0,1-6.386,2.44,10.057,10.057,0,0,0-17.125,9.162,28.532,28.532,0,0,1-20.712-10.5,10.061,10.061,0,0,0,3.11,13.414,10.051,10.051,0,0,1-4.552-1.261v.126a10.06,10.06,0,0,0,8.06,9.854,10.18,10.18,0,0,1-2.648.352,9.645,9.645,0,0,1-1.892-.187,10.055,10.055,0,0,0,9.386,6.98A20.163,20.163,0,0,1,2.4,92.851,21.363,21.363,0,0,1,0,92.713a28.407,28.407,0,0,0,15.4,4.522C33.892,97.234,44,81.922,44,68.642l-.034-1.3A20.068,20.068,0,0,0,48.99,62.149Z" transform="translate(-0.001 -57.441)" fill="#fff"/>
  </g>
</svg>
