<svg xmlns="http://www.w3.org/2000/svg" width="24.583" height="34.962" viewBox="0 0 24.583 34.962">
  <g id="placeholder" transform="translate(-76)">
    <g id="Grupo_111" data-name="Grupo 111" transform="translate(76)">
      <g id="Grupo_110" data-name="Grupo 110">
        <path id="Caminho_66" data-name="Caminho 66" d="M88.291,0A12.294,12.294,0,0,0,77.835,18.755l9.757,15.723a1.024,1.024,0,0,0,.87.484h.008a1.024,1.024,0,0,0,.871-.5l9.508-15.876A12.294,12.294,0,0,0,88.291,0Zm8.8,17.537L88.446,31.97,79.576,17.675a10.25,10.25,0,1,1,17.515-.138Z" transform="translate(-76)" fill="#38b6ab"/>
      </g>
    </g>
    <g id="Grupo_113" data-name="Grupo 113" transform="translate(82.146 6.146)">
      <g id="Grupo_112" data-name="Grupo 112">
        <path id="Caminho_67" data-name="Caminho 67" d="M172.146,90a6.146,6.146,0,1,0,6.146,6.146A6.153,6.153,0,0,0,172.146,90Zm0,10.256a4.111,4.111,0,1,1,4.1-4.111A4.114,4.114,0,0,1,172.146,100.256Z" transform="translate(-166 -90)" fill="#38b6ab"/>
      </g>
    </g>
  </g>
</svg>
