<svg id="facebook" xmlns="http://www.w3.org/2000/svg" width="48.63" height="48.631" viewBox="0 0 48.63 48.631">
  <path id="facebook-2" data-name="facebook" d="M42.079,0H6.555A6.553,6.553,0,0,0,0,6.553V42.077a6.553,6.553,0,0,0,6.553,6.553h17.52l.03-17.378H19.59a1.065,1.065,0,0,1-1.065-1.061l-.022-5.6a1.065,1.065,0,0,1,1.065-1.069h4.507V18.108c0-6.281,3.836-9.7,9.439-9.7h4.6a1.065,1.065,0,0,1,1.065,1.065V14.2a1.065,1.065,0,0,1-1.065,1.065H35.292c-3.047,0-3.637,1.448-3.637,3.573v4.686h6.7a1.065,1.065,0,0,1,1.058,1.191l-.664,5.6a1.065,1.065,0,0,1-1.058.94h-6l-.03,17.378H42.079a6.553,6.553,0,0,0,6.553-6.553V6.553A6.553,6.553,0,0,0,42.079,0Z" transform="translate(-0.002)" fill="#fff"/>
</svg>
