<svg xmlns="http://www.w3.org/2000/svg" width="37" height="28.184" viewBox="0 0 37 28.184">
  <g id="id-card" transform="translate(0 -61)">
    <g id="Grupo_129" data-name="Grupo 129" transform="translate(0 61)">
      <g id="Grupo_128" data-name="Grupo 128">
        <path id="Caminho_77" data-name="Caminho 77" d="M33.748,61H3.252A3.256,3.256,0,0,0,0,64.252v21.68a3.256,3.256,0,0,0,3.252,3.252h30.5A3.256,3.256,0,0,0,37,85.932V64.252A3.256,3.256,0,0,0,33.748,61Zm1.084,24.932a1.085,1.085,0,0,1-1.084,1.084H3.252a1.085,1.085,0,0,1-1.084-1.084V64.252a1.085,1.085,0,0,1,1.084-1.084h30.5a1.085,1.085,0,0,1,1.084,1.084Z" transform="translate(0 -61)" fill="#38b6ab"/>
      </g>
    </g>
    <g id="Grupo_131" data-name="Grupo 131" transform="translate(4.336 74.008)">
      <g id="Grupo_130" data-name="Grupo 130">
        <path id="Caminho_78" data-name="Caminho 78" d="M66.5,241a6.511,6.511,0,0,0-6.5,6.5v1.084a3.256,3.256,0,0,0,3.252,3.252h6.5a3.256,3.256,0,0,0,3.252-3.252V247.5A6.511,6.511,0,0,0,66.5,241Zm4.336,7.588a1.085,1.085,0,0,1-1.084,1.084h-6.5a1.085,1.085,0,0,1-1.084-1.084V247.5a4.336,4.336,0,0,1,8.672,0Z" transform="translate(-60 -241)" fill="#38b6ab"/>
      </g>
    </g>
    <g id="Grupo_133" data-name="Grupo 133" transform="translate(6.504 65.336)">
      <g id="Grupo_132" data-name="Grupo 132">
        <path id="Caminho_79" data-name="Caminho 79" d="M94.336,121a4.336,4.336,0,1,0,4.336,4.336A4.341,4.341,0,0,0,94.336,121Zm0,6.5a2.168,2.168,0,1,1,2.168-2.168A2.17,2.17,0,0,1,94.336,127.5Z" transform="translate(-90 -121)" fill="#38b6ab"/>
      </g>
    </g>
    <g id="Grupo_135" data-name="Grupo 135" transform="translate(19.656 80.512)">
      <g id="Grupo_134" data-name="Grupo 134">
        <path id="Caminho_80" data-name="Caminho 80" d="M283.924,331h-10.84a1.084,1.084,0,0,0,0,2.168h10.84a1.084,1.084,0,0,0,0-2.168Z" transform="translate(-272 -331)" fill="#38b6ab"/>
      </g>
    </g>
    <g id="Grupo_137" data-name="Grupo 137" transform="translate(19.656 76.176)">
      <g id="Grupo_136" data-name="Grupo 136">
        <path id="Caminho_81" data-name="Caminho 81" d="M283.924,271h-10.84a1.084,1.084,0,0,0,0,2.168h10.84a1.084,1.084,0,0,0,0-2.168Z" transform="translate(-272 -271)" fill="#38b6ab"/>
      </g>
    </g>
    <g id="Grupo_139" data-name="Grupo 139" transform="translate(19.656 71.84)">
      <g id="Grupo_138" data-name="Grupo 138">
        <path id="Caminho_82" data-name="Caminho 82" d="M283.924,211h-10.84a1.084,1.084,0,0,0,0,2.168h10.84a1.084,1.084,0,0,0,0-2.168Z" transform="translate(-272 -211)" fill="#38b6ab"/>
      </g>
    </g>
    <g id="Grupo_141" data-name="Grupo 141" transform="translate(21.824 67.504)">
      <g id="Grupo_140" data-name="Grupo 140">
        <path id="Caminho_83" data-name="Caminho 83" d="M309.588,151h-6.5a1.084,1.084,0,0,0,0,2.168h6.5a1.084,1.084,0,0,0,0-2.168Z" transform="translate(-302 -151)" fill="#38b6ab"/>
      </g>
    </g>
  </g>
</svg>
