<svg xmlns="http://www.w3.org/2000/svg" width="32.195" height="36.631" viewBox="0 0 32.195 36.631">
  <g id="mail" transform="translate(-31)">
    <g id="Grupo_125" data-name="Grupo 125" transform="translate(39.585 4.293)">
      <g id="Grupo_124" data-name="Grupo 124">
        <path id="Caminho_73" data-name="Caminho 73" d="M158.512,60a7.511,7.511,0,0,0-4.043,13.842,7.667,7.667,0,0,0,7.471.408,1.073,1.073,0,0,0-.9-1.95,5.56,5.56,0,0,1-5.416-.265,5.365,5.365,0,1,1,8.251-4.522,1.073,1.073,0,0,1-2.146.016c0-.005,0-.011,0-.016a3.224,3.224,0,1,0-1.073,2.4,3.218,3.218,0,0,0,5.366-2.4A7.521,7.521,0,0,0,158.512,60Zm1.058,7.684a1.071,1.071,0,1,1,.008-.295A1.074,1.074,0,0,0,159.57,67.684Z" transform="translate(-151 -60)" fill="#38b6ab"/>
      </g>
    </g>
    <g id="Grupo_127" data-name="Grupo 127" transform="translate(31)">
      <g id="Grupo_126" data-name="Grupo 126" transform="translate(0)">
        <path id="Caminho_74" data-name="Caminho 74" d="M63.2,14.093a1.08,1.08,0,0,0-.314-.757L58.9,9.357V1.073A1.073,1.073,0,0,0,57.829,0H36.366a1.073,1.073,0,0,0-1.073,1.073V9.357l-3.978,3.978-.011.012a1.078,1.078,0,0,0-.3.745V33.412a3.223,3.223,0,0,0,3.22,3.22H59.976a3.223,3.223,0,0,0,3.22-3.22V14.093Zm-4.293-1.7,1.7,1.7-1.7,1.7ZM37.439,9.8h0V2.146H56.756V9.8h0v8.141l-5.81,5.81h-7.7l-5.81-5.81Zm-2.146,2.591v3.4l-1.7-1.7ZM33.146,32.967V16.685l8.141,8.141Zm1.518,1.518L43.249,25.9h7.7l8.585,8.585Zm26.385-1.518-8.141-8.141,8.141-8.141Z" transform="translate(-31)" fill="#38b6ab"/>
      </g>
    </g>
  </g>
</svg>
