<svg xmlns="http://www.w3.org/2000/svg" width="25.663" height="32.204" viewBox="0 0 25.663 32.204">
  <g id="lock" transform="translate(-52)">
    <g id="Grupo_143" data-name="Grupo 143" transform="translate(52)">
      <g id="Grupo_142" data-name="Grupo 142" transform="translate(0)">
        <path id="Caminho_84" data-name="Caminho 84" d="M73.889,11.825H71.622V6.653a6.795,6.795,0,0,0-13.586,0v5.172H55.774A3.778,3.778,0,0,0,52,15.6V28.43A3.778,3.778,0,0,0,55.774,32.2H73.889a3.778,3.778,0,0,0,3.774-3.774V15.6A3.778,3.778,0,0,0,73.889,11.825ZM60.552,6.653a4.28,4.28,0,0,1,8.554,0v5.172H60.552ZM75.147,28.43a1.259,1.259,0,0,1-1.258,1.258H55.774a1.259,1.259,0,0,1-1.258-1.258V15.6a1.259,1.259,0,0,1,1.258-1.258H73.889A1.259,1.259,0,0,1,75.147,15.6Z" transform="translate(-52)" fill="#38b6ab"/>
      </g>
    </g>
    <g id="Grupo_145" data-name="Grupo 145" transform="translate(62.504 17.989)">
      <g id="Grupo_144" data-name="Grupo 144" transform="translate(0)">
        <path id="Caminho_85" data-name="Caminho 85" d="M221.327,286a2.327,2.327,0,0,0-1.26,4.283v2.761a1.258,1.258,0,1,0,2.516,0v-2.758A2.327,2.327,0,0,0,221.327,286Z" transform="translate(-219 -286)" fill="#38b6ab"/>
      </g>
    </g>
  </g>
</svg>
