<svg xmlns="http://www.w3.org/2000/svg" width="241.924" height="212.686" viewBox="0 0 241.924 212.686">
  <g id="Polígono_8" data-name="Polígono 8" transform="translate(10.511) rotate(3)" fill="none" opacity="0.405">
    <path d="M166.289,0a13,13,0,0,1,11.26,6.5L227.983,93.92a13,13,0,0,1,0,12.993L177.55,194.329a13,13,0,0,1-11.26,6.5H65.441a13,13,0,0,1-11.26-6.5L3.748,106.913a13,13,0,0,1,0-12.993L54.181,6.5A13,13,0,0,1,65.441,0Z" stroke="none"/>
    <path d="M 65.44097900390625 1 C 63.33677673339844 1 61.26141357421875 1.5562744140625 59.43927001953125 2.608657836914063 C 57.61715698242188 3.661041259765625 56.09823608398438 5.180679321289063 55.04670715332031 7.003326416015625 L 4.614089965820313 94.41986083984375 C 3.5635986328125 96.24070739746094 3.008331298828125 98.3143310546875 3.008331298828125 100.41650390625 C 3.008331298828125 102.5187072753906 3.5635986328125 104.5923309326172 4.614089965820313 106.4131851196289 L 55.04670715332031 193.8297424316406 C 56.09820556640625 195.6523590087891 57.61715698242188 197.1720123291016 59.43927001953125 198.2243804931641 C 61.26138305664063 199.2767944335938 63.33674621582031 199.8330688476563 65.44091796875 199.8330688476563 L 166.2894744873047 199.8330688476563 C 168.3936767578125 199.8330688476563 170.4690399169922 199.2767944335938 172.2911529541016 198.2243804931641 C 174.1132659912109 197.1720123291016 175.6321868896484 195.6523590087891 176.6837158203125 193.8297119140625 L 227.1163330078125 106.4131851196289 C 228.1668243408203 104.5923309326172 228.7220916748047 102.5187072753906 228.7220916748047 100.41650390625 C 228.7220916748047 98.3143310546875 228.1668243408203 96.24070739746094 227.1163330078125 94.41986083984375 L 176.6837158203125 7.003326416015625 C 175.6321868896484 5.180679321289063 174.1132659912109 3.661041259765625 172.2911529541016 2.608657836914063 C 170.4690399169922 1.5562744140625 168.3936767578125 1 166.2894744873047 1 L 65.44097900390625 1 M 65.44097900390625 0 L 166.2894744873047 0 C 170.9354553222656 0 175.2282104492188 2.479354858398438 177.5498962402344 6.503585815429688 L 227.9824981689453 93.92012023925781 C 230.3019409179688 97.94050598144531 230.3019409179688 102.8925323486328 227.9824981689453 106.9129180908203 L 177.5498962402344 194.3294525146484 C 175.2282104492188 198.3536834716797 170.9354553222656 200.8330688476563 166.2894744873047 200.8330688476563 L 65.44091796875 200.8330688476563 C 60.79499816894531 200.8330688476563 56.50218200683594 198.3536834716797 54.1805419921875 194.3294525146484 L 3.7479248046875 106.9129180908203 C 1.428482055664063 102.8925323486328 1.428482055664063 97.94050598144531 3.7479248046875 93.92012023925781 L 54.1805419921875 6.503585815429688 C 56.50221252441406 2.479354858398438 60.79499816894531 0 65.44097900390625 0 Z" stroke="none" fill="#026a94"/>
  </g>
</svg>
