<svg xmlns="http://www.w3.org/2000/svg" width="289.502" height="261.923" viewBox="0 0 289.502 261.923">
  <g id="Polígono_9" data-name="Polígono 9" transform="matrix(0.985, -0.174, 0.174, 0.985, 0, 44.28)" fill="none" opacity="0.344">
    <path d="M185.474,0a10,10,0,0,1,8.662,5l57.981,100.5a10,10,0,0,1,0,9.994L194.136,216a10,10,0,0,1-8.662,5H69.526a10,10,0,0,1-8.662-5L2.883,115.5a10,10,0,0,1,0-9.994L60.864,5a10,10,0,0,1,8.662-5Z" stroke="none"/>
    <path d="M 69.52566528320313 1.000015258789063 C 66.31936645507813 1.000015258789063 63.33222961425781 2.72528076171875 61.72999572753906 5.50250244140625 L 3.74920654296875 106.0025100708008 C 2.148696899414063 108.7766418457031 2.148696899414063 112.2233428955078 3.74920654296875 114.9974746704102 L 61.72996520996094 215.4974670410156 C 63.33222961425781 218.2747344970703 66.31936645507813 220 69.525634765625 219.9999694824219 L 185.4744262695313 219.9999694824219 C 188.6806640625 219.9999694824219 191.6677703857422 218.2747039794922 193.2700042724609 215.4974670410156 L 251.2507934570313 114.9974746704102 C 252.8512725830078 112.2233428955078 252.8512725830078 108.7766723632813 251.2507934570313 106.0025100708008 L 193.2700042724609 5.50250244140625 C 191.6677703857422 2.72528076171875 188.6806335449219 1.000015258789063 185.474365234375 1.000015258789063 L 69.52566528320313 1.000015258789063 M 69.52566528320313 1.52587890625e-05 L 185.474365234375 1.52587890625e-05 C 189.0481567382813 1.52587890625e-05 192.3502960205078 1.907211303710938 194.1361999511719 5.002777099609375 L 252.1170043945313 105.5027770996094 C 253.9011688232422 108.5953750610352 253.9011688232422 112.4046401977539 252.1170043945313 115.4972076416016 L 194.1361999511719 215.9972076416016 C 192.3504028320313 219.0926208496094 189.0480041503906 220.9999694824219 185.4744262695313 220.9999694824219 C 185.4742126464844 220.9999694824219 185.4745483398438 220.9999694824219 185.4743347167969 220.9999694824219 L 69.525634765625 220.9999694824219 C 65.95182800292969 221 62.64970397949219 219.0928039550781 60.86376953125 215.9972076416016 L 2.88299560546875 115.4972076416016 C 1.098800659179688 112.4046096801758 1.098800659179688 108.5953750610352 2.88299560546875 105.5027770996094 L 60.86380004882813 5.002777099609375 C 62.64970397949219 1.907211303710938 65.95187377929688 1.52587890625e-05 69.52566528320313 1.52587890625e-05 Z" stroke="none" fill="#38b6ab"/>
  </g>
</svg>
