<svg xmlns="http://www.w3.org/2000/svg" width="231.73" height="200.833" viewBox="0 0 231.73 200.833">
  <g id="Polígono_7" data-name="Polígono 7" fill="none" opacity="0.405">
    <path d="M166.29,0a13,13,0,0,1,11.26,6.5L227.983,93.92a13,13,0,0,1,0,12.993L177.55,194.329a13,13,0,0,1-11.26,6.5H65.441a13,13,0,0,1-11.26-6.5L3.748,106.913a13,13,0,0,1,0-12.993L54.181,6.5A13,13,0,0,1,65.441,0Z" stroke="none"/>
    <path d="M 65.44094848632813 1 C 63.33674621582031 1 61.26139831542969 1.556259155273438 59.43928527832031 2.608642578125 C 57.61715698242188 3.661026000976563 56.09825134277344 5.180679321289063 55.04672241210938 7.003326416015625 L 4.614105224609375 94.41985321044922 C 3.5635986328125 96.24069976806641 3.00830078125 98.31432342529297 3.00830078125 100.4164962768555 C 3.00830078125 102.5186996459961 3.5635986328125 104.5923233032227 4.614105224609375 106.4131774902344 L 55.04669189453125 193.8296966552734 C 56.09822082519531 195.65234375 57.61712646484375 197.1719970703125 59.43925476074219 198.2243804931641 C 61.26139831542969 199.2767944335938 63.33674621582031 199.8330535888672 65.44094848632813 199.8330535888672 L 166.2895202636719 199.8330535888672 C 168.3937225341797 199.8330535888672 170.4690399169922 199.2767944335938 172.2911987304688 198.2243804931641 C 174.1133117675781 197.1719970703125 175.6322174072266 195.65234375 176.6837463378906 193.8296966552734 L 227.1163330078125 106.4131774902344 C 228.1668395996094 104.5923233032227 228.7221069335938 102.5186996459961 228.7221069335938 100.4165267944336 C 228.7221069335938 98.31435394287109 228.1668395996094 96.24073028564453 227.1163330078125 94.41987609863281 L 176.6837463378906 7.003326416015625 C 175.6322174072266 5.180679321289063 174.1133117675781 3.661026000976563 172.2911987304688 2.608642578125 C 170.4690704345703 1.556259155273438 168.3937225341797 1 166.2895202636719 1 L 65.44094848632813 1 M 65.44094848632813 0 L 166.2895202636719 0 C 170.9354553222656 0 175.2282409667969 2.479354858398438 177.5499267578125 6.503585815429688 L 227.9825134277344 93.92014312744141 C 230.3019561767578 97.94052886962891 230.3019561767578 102.8925247192383 227.9825134277344 106.9129104614258 L 177.5499267578125 194.3294372558594 C 175.2282409667969 198.3536682128906 170.9354553222656 200.8330535888672 166.2895202636719 200.8330535888672 L 65.44094848632813 200.8330535888672 C 60.79498291015625 200.8330535888672 56.502197265625 198.3536682128906 54.18051147460938 194.3294372558594 L 3.7479248046875 106.9129104614258 C 1.428451538085938 102.8925247192383 1.428451538085938 97.94049835205078 3.7479248046875 93.92011260986328 L 54.1805419921875 6.503585815429688 C 56.50221252441406 2.479354858398438 60.79501342773438 0 65.44094848632813 0 Z" stroke="none" fill="#38b6ab"/>
  </g>
</svg>
